{
  "source": "C:\\Users\\Peter\\Desktop\\stuff\\MIUN\\quantitative_research\\video_compression\\videos\\BVI-HD\\BVI-HD_CDVL_videos\\ORIG\\KineticFastPainting_1920x1080_60fps.mp4",
  "output": "C:\\Users\\Peter\\Desktop\\stuff\\MIUN\\quantitative_research\\video_compression\\compressed_videos\\BVI-HD\\h264\\2.5\\KineticFastPainting_1920x1080_60fps_h264.mp4",
  "codec": "h264",
  "ok": "Input #0, mov,mp4,m4a,3gp,3g2,mj2, from 'C:\\Users\\Peter\\Desktop\\stuff\\MIUN\\quantitative_research\\video_compression\\videos\\BVI-HD\\BVI-HD_CDVL_videos\\ORIG\\KineticFastPainting_1920x1080_60fps.mp4':\n  Metadata:\n    major_brand     : isom\n    minor_version   : 512\n    compatible_brands: isomiso2avc1mp41\n    encoder         : Lavf54.28.101\n  Duration: 00:00:05.00, start: 0.000000, bitrate: 477980 kb/s\n  Stream #0:0[0x1](und): Video: h264 (High 4:4:4 Predictive) (avc1 / 0x31637661), yuv420p(progressive), 1920x1080, 477974 kb/s, 60 fps, 60 tbr, 60 tbn (default)\n    Metadata:\n      handler_name    : VideoHandler\n      vendor_id       : [0][0][0][0]\n[out#0/mp4 @ 0000029be67c7900] Codec AVOption b:a (set bitrate (in bits/s)) has not been used for any stream. The most likely reason is either wrong type (e.g. a video option with no video streams) or that it is a private option of some decoder which was not actually used for any stream.\nStream mapping:\n  Stream #0:0 -> #0:0 (h264 (native) -> h264 (libx264))\nPress [q] to stop, [?] for help\n[libx264 @ 0000029be6740d80] using cpu capabilities: MMX2 SSE2Fast SSSE3 SSE4.2 AVX FMA3 BMI2 AVX2\n[libx264 @ 0000029be6740d80] profile High, level 5.0, 4:2:0, 8-bit\n[libx264 @ 0000029be6740d80] 264 - core 165 r3222 b35605a - H.264/MPEG-4 AVC codec - Copyleft 2003-2025 - http://www.videolan.org/x264.html - options: cabac=1 ref=5 deblock=1:0:0 analyse=0x3:0x113 me=hex subme=8 psy=1 psy_rd=1.00:0.00 mixed_ref=1 me_range=16 chroma_me=1 trellis=2 8x8dct=1 cqm=0 deadzone=21,11 fast_pskip=1 chroma_qp_offset=-2 threads=18 lookahead_threads=3 sliced_threads=0 nr=0 decimate=1 interlaced=0 bluray_compat=0 constrained_intra=0 bframes=3 b_pyramid=2 b_adapt=1 b_bias=0 direct=3 weightb=1 open_gop=0 weightp=2 keyint=250 keyint_min=25 scenecut=40 intra_refresh=0 rc_lookahead=50 rc=cbr mbtree=1 bitrate=2500 ratetol=1.0 qcomp=0.60 qpmin=0 qpmax=69 qpstep=4 vbv_maxrate=2500 vbv_bufsize=2500 nal_hrd=none filler=0 ip_ratio=1.40 aq=1:1.00\nOutput #0, mp4, to 'C:\\Users\\Peter\\Desktop\\stuff\\MIUN\\quantitative_research\\video_compression\\compressed_videos\\BVI-HD\\h264\\2.5\\KineticFastPainting_1920x1080_60fps_h264.mp4':\n  Metadata:\n    major_brand     : isom\n    minor_version   : 512\n    compatible_brands: isomiso2avc1mp41\n    encoder         : Lavf62.3.100\n  Stream #0:0(und): Video: h264 (avc1 / 0x31637661), yuv420p(tv, progressive), 1920x1080, q=2-31, 2500 kb/s, 60 fps, 15360 tbn (default)\n    Metadata:\n      encoder         : Lavc62.11.100 libx264\n      handler_name    : VideoHandler\n      vendor_id       : [0][0][0][0]\n    Side data:\n      cpb: bitrate max/min/avg: 2500000/0/2500000 buffer size: 2500000 vbv_delay: N/A\nframe=    0 fps=0.0 q=0.0 size=       0KiB time=N/A bitrate=N/A speed=N/A elapsed=0:00:00.52    \nframe=    0 fps=0.0 q=0.0 size=       0KiB time=N/A bitrate=N/A speed=N/A elapsed=0:00:01.08    \nframe=    2 fps=1.2 q=48.0 size=       0KiB time=00:00:00.00 bitrate=N/A speed=   0x elapsed=0:00:01.62    \nframe=   26 fps= 12 q=51.0 size=       0KiB time=00:00:00.40 bitrate=   1.0kbits/s speed=0.182x elapsed=0:00:02.19    \nframe=   45 fps= 16 q=51.0 size=     256KiB time=00:00:00.71 bitrate=2926.8kbits/s speed=0.263x elapsed=0:00:02.72    \nframe=   70 fps= 21 q=51.0 size=     256KiB time=00:00:01.13 bitrate=1850.8kbits/s speed=0.347x elapsed=0:00:03.26    \nframe=  101 fps= 27 q=52.0 size=     512KiB time=00:00:01.58 bitrate=2649.3kbits/s speed=0.417x elapsed=0:00:03.79    \nframe=  124 fps= 28 q=52.0 size=     512KiB time=00:00:02.00 bitrate=2097.3kbits/s speed=0.459x elapsed=0:00:04.35    \nframe=  145 fps= 30 q=52.0 size=     768KiB time=00:00:02.36 bitrate=2658.5kbits/s speed=0.482x elapsed=0:00:04.90    \nframe=  169 fps= 31 q=52.0 size=     768KiB time=00:00:02.75 bitrate=2287.9kbits/s speed=0.503x elapsed=0:00:05.46    \nframe=  196 fps= 33 q=54.0 size=    1024KiB time=00:00:03.23 bitrate=2594.5kbits/s speed=0.538x elapsed=0:00:06.00    \nframe=  228 fps= 35 q=52.0 size=    1024KiB time=00:00:03.76 bitrate=2227.2kbits/s speed=0.575x elapsed=0:00:06.54    \nframe=  276 fps= 39 q=52.0 size=    1280KiB time=00:00:04.56 bitrate=2296.2kbits/s speed=0.647x elapsed=0:00:07.05    \n[mp4 @ 0000029be67c7a00] Starting second pass: moving the moov atom to the beginning of the file\n[out#0/mp4 @ 0000029be67c7900] video:1593KiB audio:0KiB subtitle:0KiB other streams:0KiB global headers:0KiB muxing overhead: 0.210395%\nframe=  300 fps= 41 q=-1.0 Lsize=    1596KiB time=00:00:04.96 bitrate=2632.2kbits/s speed=0.68x elapsed=0:00:07.30    \n[libx264 @ 0000029be6740d80] frame I:2     Avg QP:44.90  size: 21958\n[libx264 @ 0000029be6740d80] frame P:210   Avg QP:49.58  size:  5845\n[libx264 @ 0000029be6740d80] frame B:88    Avg QP:50.51  size:  4076\n[libx264 @ 0000029be6740d80] consecutive B-frames: 50.7% 30.0%  2.0% 17.3%\n[libx264 @ 0000029be6740d80] mb I  I16..4: 40.0% 59.7%  0.3%\n[libx264 @ 0000029be6740d80] mb P  I16..4: 14.4%  4.5%  0.0%  P16..4: 21.5%  0.5%  0.6%  0.0%  0.0%    skip:58.4%\n[libx264 @ 0000029be6740d80] mb B  I16..4:  0.8%  0.3%  0.0%  B16..8: 28.6%  0.4%  0.0%  direct: 6.1%  skip:63.8%  L0:46.3% L1:53.4% BI: 0.4%\n[libx264 @ 0000029be6740d80] 8x8 transform intra:25.7% inter:99.2%\n[libx264 @ 0000029be6740d80] direct mvs  spatial:89.8% temporal:10.2%\n[libx264 @ 0000029be6740d80] coded y,uvDC,uvAC intra: 2.1% 35.1% 0.8% inter: 0.5% 12.9% 0.0%\n[libx264 @ 0000029be6740d80] i16 v,h,dc,p: 46% 28%  7% 19%\n[libx264 @ 0000029be6740d80] i8 v,h,dc,ddl,ddr,vr,hd,vl,hu:  5%  2% 71%  4%  5%  5%  4%  3%  2%\n[libx264 @ 0000029be6740d80] i4 v,h,dc,ddl,ddr,vr,hd,vl,hu: 18% 12%  5% 10% 18% 17%  7%  7%  4%\n[libx264 @ 0000029be6740d80] i8c dc,h,v,p: 92%  4%  3%  1%\n[libx264 @ 0000029be6740d80] Weighted P-Frames: Y:32.9% UV:14.8%\n[libx264 @ 0000029be6740d80] ref P L0: 56.9%  0.6% 14.3%  9.7%  9.7%  7.3%  1.5%\n[libx264 @ 0000029be6740d80] ref B L0: 61.2% 19.1% 16.9%  2.8%\n[libx264 @ 0000029be6740d80] ref B L1: 95.2%  4.8%\n[libx264 @ 0000029be6740d80] kb/s:2607.97\n",
  "seconds": 7.569950342178345,
  "probe_out": {}
}